<?xml version="1.0" encoding="utf-8"?>
<!-- Generator: Adobe Illustrator 24.1.0, SVG Export Plug-In . SVG Version: 6.00 Build 0)  -->
<svg version="1.1" id="Layer_1" xmlns="http://www.w3.org/2000/svg" xmlns:xlink="http://www.w3.org/1999/xlink" x="0px" y="0px"
	 viewBox="0 0 339.86 337.65" style="enable-background:new 0 0 339.86 337.65;" xml:space="preserve">
<style type="text/css">
	.st0{fill:#EEAF4F;}
	.st1{fill:#FFFFFF;}
</style>
<g>
	<circle class="st0" cx="170.41" cy="168.91" r="157.3"/>
	<g>
		<g>
			<path class="st1" d="M163.74,182.97l-61.82,61.82l16.5,16.5c2.83,2.83,7.42,2.83,10.25,0l40.82-40.82l40.82,40.82
				c2.83,2.83,7.42,2.83,10.25,0l16.5-16.5l-61.82-61.82C172.06,179.8,166.91,179.8,163.74,182.97z"/>
			<path class="st1" d="M91.21,98.69l-16.5,16.5c-2.83,2.83-2.83,7.42,0,10.25l40.82,40.82l-40.82,40.82
				c-2.83,2.83-2.83,7.42,0,10.25l16.5,16.5L153.03,172c3.17-3.17,3.17-8.32,0-11.49L91.21,98.69z"/>
			<path class="st1" d="M265.33,115.11l-16.5-16.5l-61.97,61.97c-3.17,3.17-3.17,8.32,0,11.49l61.82,61.82l16.5-16.5
				c2.83-2.83,2.83-7.42,0-10.25l-40.82-40.82l40.97-40.97C268.16,122.53,268.16,117.94,265.33,115.11z"/>
			<path class="st1" d="M281.26,57.33"/>
		</g>
		<path class="st1" d="M274.81,51.26L274.81,51.26c-7.71-6.9-16.11-13.06-25.08-18.33l-0.08,0.08c0,0,0,0,0,0l-8.5,8.5l-0.03,0.03
			l-71.65,71.65l-40.82-40.82c-2.83-2.83-7.42-2.83-10.25,0l-16.5,16.5l61.82,61.82c3.17,3.17,8.32,3.17,11.49,0l99.5-99.5
			C274.76,51.21,274.78,51.24,274.81,51.26z"/>
	</g>
</g>
</svg>
